<svg version="1.1" xmlns="http://www.w3.org/2000/svg" width="34" height="34">
<path d="M0 0 C5.01791684 2.41935276 8.49958655 5.9991731 11 11 C11.5072965 16.55531248 11.76260422 21.41830236 9.3125 26.5 C2.59412173 33.76311164 2.59412173 33.76311164 -2.609375 34.23828125 C-13.14881343 34.48734758 -13.14881343 34.48734758 -18 30 C-22.83106777 24.51608524 -23.35024743 21.19460601 -23.28125 13.984375 C-22.77938024 8.65897925 -20.24614624 6.0977955 -16.375 2.6875 C-11.25527798 -0.95019722 -6.13002394 -0.57769859 0 0 Z " fill="#F84343" transform="translate(23,0)"/>
<path d="M0 0 C0.66 0 1.32 0 2 0 C3.00508801 1.78881736 4.00392736 3.58114696 5 5.375 C5.8353125 6.87160156 5.8353125 6.87160156 6.6875 8.3984375 C8 11 8 11 8 13 C5.23547967 14.38226016 2.9538637 14.09525387 -0.125 14.0625 C-1.22070312 14.05347656 -2.31640625 14.04445313 -3.4453125 14.03515625 C-4.70988281 14.01775391 -4.70988281 14.01775391 -6 14 C-2.90009699 3.90882638 -2.90009699 3.90882638 0 0 Z " fill="#F44A3E" transform="translate(16,10)"/>
<path d="M0 0 C0.66 0 1.32 0 2 0 C2.66 1.98 3.32 3.96 4 6 C3.34 6 2.68 6 2 6 C2 5.34 2 4.68 2 4 C1.34 4 0.68 4 0 4 C0 5.65 0 7.3 0 9 C-1.32 9 -2.64 9 -4 9 C-2.80100302 5.9168649 -1.52299523 2.93720508 0 0 Z " fill="#F86153" transform="translate(16,10)"/>
<path d="M0 0 C0.66 0 1.32 0 2 0 C2 0.66 2 1.32 2 2 C2.99 1.67 3.98 1.34 5 1 C5 5 5 5 3.625 6.75 C2 8 2 8 0 8 C0 5.36 0 2.72 0 0 Z " fill="#E68536" transform="translate(16,14)"/>
</svg>
